<!-- icon666.com - MILLIONS vector ICONS FREE --><svg version="1.1" id="Capa_1" xmlns="http://www.w3.org/2000/svg" xmlns:xlink="http://www.w3.org/1999/xlink" x="0px" y="0px" viewBox="0 0 502.676 502.676" style="enable-background:new 0 0 502.676 502.676;" xml:space="preserve"><g><g><g><rect x="71.313" y="187.057" style="fill: rgb(13, 92, 99);" width="254.039" height="25.432" fill="#010002"></rect><rect x="71.313" y="124.718" style="fill: rgb(13, 92, 99);" width="254.039" height="25.454" fill="#010002"></rect><path style="fill: rgb(13, 92, 99);" d="M497.293,127.457l-42.02-36.347c-5.759-5.004-13.935-5.112-18.141-0.302l-26.316,30.35 l63.094,54.639l26.316-30.372C504.433,140.637,503.074,132.418,497.293,127.457z" fill="#010002"></path><path style="fill: rgb(13, 92, 99);" d="M403.913,129.118l-8.52,9.858V39.901H0v422.874h395.392V266.373l71.529-82.551L403.913,129.118z M364.827,432.748H30.587V81.188h334.239v93.056l-73.707,85.097H71.313v25.432h197.782l-2.761,3.192l62.944,54.66l35.527-41.006 L364.827,432.748L364.827,432.748z" fill="#010002"></path><polygon style="fill: rgb(13, 92, 99);" points="239.608,376.988 242.801,379.814 322.203,350.866 259.173,296.184 " fill="#010002"></polygon><circle style="fill: rgb(13, 92, 99);" cx="123.277" cy="366.828" r="40.359" fill="#010002"></circle></g></g></g></svg>