<?xml version="1.0" standalone="no"?>
<!DOCTYPE svg PUBLIC "-//W3C//DTD SVG 20010904//EN"
 "http://www.w3.org/TR/2001/REC-SVG-20010904/DTD/svg10.dtd">
<svg version="1.0" xmlns="http://www.w3.org/2000/svg"
 width="1204.000000pt" height="536.000000pt" viewBox="0 0 1204.000000 536.000000"
 preserveAspectRatio="xMidYMid meet">

<g transform="translate(0.000000,536.000000) scale(0.100000,-0.100000)"
fill="#000000" stroke="none">
<path d="M1505 4164 c-35 -28 -45 -30 -45 -9 0 8 -4 15 -9 15 -17 0 -23 -20
-11 -35 28 -34 -31 -105 -98 -120 -31 -6 -46 8 -19 18 8 4 4 12 -13 26 -23 18
-25 18 -29 3 -2 -9 -12 -23 -22 -30 -16 -11 -17 -16 -6 -32 6 -11 20 -20 29
-20 10 0 18 -4 18 -9 0 -15 -23 -19 -42 -7 -13 8 -22 5 -39 -9 -16 -15 -23
-17 -26 -7 -3 7 -28 35 -55 62 -43 42 -55 49 -77 43 -40 -10 -68 -43 -36 -43
8 0 15 7 15 15 0 24 14 17 33 -15 17 -28 17 -30 1 -30 -10 0 -14 -5 -10 -15 4
-10 -1 -14 -17 -12 -13 1 -22 -4 -22 -13 0 -10 -11 -15 -32 -15 -22 0 -38 -7
-48 -22 -19 -27 -31 -29 -39 -6 -8 20 37 63 66 63 10 0 18 7 18 15 0 28 -67
19 -103 -15 -28 -26 -30 -32 -19 -50 19 -31 14 -36 -13 -10 -14 13 -25 20 -25
17 0 -20 -48 28 -53 52 -5 23 -10 28 -29 24 -13 -3 -36 -22 -53 -43 -19 -24
-39 -39 -53 -40 -34 0 -82 -48 -82 -82 0 -15 -5 -28 -11 -28 -12 0 -8 -61 5
-91 5 -12 -1 -19 -23 -29 -39 -16 -41 -51 -6 -102 14 -20 25 -42 25 -47 0 -6
8 -11 19 -11 13 0 20 9 25 30 3 17 9 30 13 29 26 -4 35 3 31 25 -4 20 0 26 21
31 20 5 29 2 40 -14 7 -12 22 -21 32 -21 11 0 19 -4 19 -10 0 -5 9 -10 20 -10
11 0 20 6 20 14 0 8 7 17 16 20 24 9 74 7 74 -3 0 -5 16 -16 35 -25 19 -9 35
-24 35 -32 0 -8 12 -20 28 -27 15 -6 30 -16 33 -21 4 -5 22 -6 40 -2 19 4 52
8 74 9 26 1 39 6 37 15 -2 13 20 17 31 5 11 -10 106 -12 113 -2 3 5 21 16 40
24 30 12 34 18 34 49 0 40 20 48 50 21 9 -8 36 -17 61 -19 24 -3 46 -5 48 -5
2 -1 -2 -7 -8 -14 -8 -10 -7 -20 1 -39 12 -24 14 -25 35 -11 20 13 23 24 23
75 0 54 2 59 16 47 13 -10 17 -10 25 2 6 9 4 18 -6 25 -8 6 -15 16 -15 22 0 6
-18 25 -40 42 -37 29 -41 30 -56 15 -12 -11 -19 -13 -24 -6 -12 20 2 71 25 89
27 21 50 62 35 62 -5 0 -10 5 -10 10 0 6 7 10 15 10 9 0 15 -9 15 -25 0 -15
10 -31 27 -42 14 -10 38 -30 53 -45 15 -15 30 -25 33 -21 3 3 -2 27 -12 54
-10 26 -17 50 -15 52 2 2 -7 16 -21 31 -35 38 -46 61 -34 73 6 6 6 19 -1 37
-5 15 -8 31 -5 36 9 14 -6 39 -20 34 -19 -8 -27 12 -10 26 8 7 15 20 15 29 0
26 -41 23 -75 -5z m11 -29 c-3 -8 0 -15 5 -15 6 0 9 -9 6 -20 -4 -16 0 -20 19
-20 17 0 25 -7 30 -25 8 -34 -2 -59 -22 -51 -11 4 -18 -1 -21 -14 -5 -18 -13
-20 -102 -19 -78 0 -93 2 -77 12 11 7 27 20 37 29 9 9 20 14 23 11 10 -10 61
53 58 71 -2 9 7 25 20 36 28 24 32 24 24 5z"/>
<path d="M8680 4168 c0 -4 -6 -8 -12 -8 -33 -1 -52 -38 -51 -97 1 -13 -3 -23
-8 -23 -5 0 -9 5 -9 10 0 6 -12 10 -27 10 -14 0 -34 6 -42 14 -23 19 -99 38
-146 37 -32 -1 -46 -8 -67 -33 -31 -36 -35 -48 -14 -48 24 0 29 -20 10 -35
-11 -7 -22 -11 -26 -9 -5 3 -8 1 -8 -4 0 -4 -20 -23 -45 -42 -42 -31 -43 -34
-26 -47 11 -7 26 -10 35 -7 9 3 16 1 16 -5 0 -23 2 -26 18 -35 29 -16 72 -17
72 -1 0 8 7 15 15 15 9 0 15 10 16 23 1 18 4 15 17 -15 10 -21 23 -38 30 -38
7 0 15 -7 18 -15 4 -8 10 -12 15 -10 4 3 17 -3 29 -15 11 -11 33 -20 50 -20
17 0 30 -4 30 -10 0 -5 -7 -10 -15 -10 -8 0 -23 -9 -33 -20 -13 -14 -25 -18
-37 -14 -14 6 -16 4 -10 -6 6 -10 3 -12 -14 -7 -13 3 -26 -1 -34 -12 -20 -29
-33 -31 -78 -16 -41 15 -44 15 -79 -10 -42 -29 -52 -30 -85 -9 -31 20 -95 12
-95 -13 0 -9 -6 -13 -14 -10 -17 7 -24 -16 -18 -51 4 -18 10 -22 26 -18 11 2
40 1 62 -3 23 -4 49 -4 58 1 11 6 21 3 33 -12 18 -20 49 -27 55 -11 2 5 18 12
37 16 24 5 32 4 26 -5 -4 -7 1 -13 13 -17 13 -3 19 -10 15 -19 -4 -12 0 -14
20 -9 15 4 28 2 32 -5 6 -9 10 -9 16 1 6 10 27 13 70 11 34 -1 67 2 73 7 6 5
25 11 41 13 26 3 30 7 30 33 1 53 14 75 44 75 15 0 36 9 46 20 10 11 24 20 31
20 8 0 11 6 7 16 -4 12 0 14 20 9 18 -5 35 -1 56 14 l30 22 7 -35 c5 -31 9
-34 25 -26 10 6 33 11 51 13 30 2 34 7 48 50 19 58 32 67 90 62 32 -3 49 0 62
13 9 9 25 24 34 31 22 19 161 102 197 118 15 7 27 17 27 23 0 5 9 10 20 10 20
0 26 16 12 36 -11 17 -51 36 -62 29 -6 -4 -24 8 -41 25 -30 29 -37 31 -128 37
-166 9 -299 6 -328 -9 -26 -13 -111 11 -151 43 -24 18 -82 23 -82 7z m130
-123 c8 0 18 7 22 15 5 11 7 10 7 -5 1 -17 3 -18 12 -5 8 11 9 8 5 -15 -4 -20
-3 -25 2 -16 8 11 11 11 16 0 3 -8 4 -3 1 11 -3 14 -2 19 1 12 5 -10 9 -10 22
0 14 12 14 10 2 -11 -11 -21 -10 -23 4 -18 12 5 15 3 10 -5 -5 -8 -2 -9 11 -4
15 5 16 4 5 -9 -13 -16 -35 -21 -26 -7 3 5 -2 9 -10 9 -13 0 -13 -2 -1 -15 12
-11 19 -12 38 -1 22 11 23 11 10 -4 -11 -14 -11 -17 0 -17 12 0 12 -2 0 -9
-11 -7 -9 -10 10 -14 21 -4 21 -5 -6 -7 l-30 -2 30 -8 30 -8 -30 -1 -30 -2 30
-14 30 -14 -30 5 -30 5 25 -15 25 -15 -27 2 c-27 2 -40 -15 -16 -21 9 -2 8 0
-2 7 -19 13 0 14 20 1 11 -7 11 -10 2 -10 -8 0 -10 -5 -6 -12 5 -8 2 -9 -10
-5 -14 6 -17 3 -12 -9 5 -14 4 -15 -9 -4 -8 7 -12 17 -8 23 3 6 1 7 -6 3 -9
-6 -8 -14 5 -34 l17 -27 -21 18 c-20 19 -21 18 -16 -5 5 -23 5 -23 -10 2 l-16
25 6 -30 c4 -23 3 -26 -5 -15 -9 13 -11 12 -12 -5 0 -15 -2 -16 -7 -5 -4 8
-14 15 -22 15 -8 0 -18 -7 -23 -15 -4 -9 -6 -5 -4 12 2 15 0 25 -4 22 -5 -3
-9 0 -9 7 0 7 -7 4 -16 -7 -15 -19 -16 -19 -9 0 6 20 6 20 -16 0 l-22 -19 17
27 c13 20 14 28 5 34 -7 4 -9 3 -6 -3 4 -6 -3 -19 -16 -29 -12 -10 -16 -12 -9
-4 17 20 15 30 -5 23 -12 -3 -10 0 5 11 28 22 19 40 -17 32 l-26 -6 25 15 25
16 -30 -5 -30 -5 30 14 30 14 -30 2 -30 1 30 8 30 8 -30 2 c-27 2 -27 3 -6 7
19 4 21 7 10 14 -11 7 -11 9 -1 9 7 0 10 5 6 11 -4 7 0 9 13 5 13 -4 25 0 34
11 8 9 9 14 3 10 -7 -4 -18 1 -25 10 -12 15 -12 16 3 10 13 -4 16 -2 12 11 -5
14 -3 13 10 -2 12 -15 16 -16 16 -5 0 12 2 12 10 -1 8 -11 9 -7 4 15 -4 23 -3
26 5 15 9 -13 11 -12 12 5 0 15 2 16 7 5 4 -8 14 -15 22 -15z m-62 -10 c-3 -3
-9 2 -12 12 -6 14 -5 15 5 6 7 -7 10 -15 7 -18z m-32 -53 c-4 -3 -14 2 -24 12
-16 18 -16 18 6 6 13 -6 21 -14 18 -18z m-16 -132 c-8 -5 -19 -10 -25 -10 -5
0 -3 5 5 10 8 5 20 10 25 10 6 0 3 -5 -5 -10z m67 -82 c-3 -8 -6 -5 -6 6 -1
11 2 17 5 13 3 -3 4 -12 1 -19z m-464 -128 c3 -11 1 -23 -4 -26 -5 -3 -9 -1
-9 5 0 5 -3 16 -6 25 -3 9 -2 16 4 16 5 0 12 -9 15 -20z m-63 -40 c0 -5 -2
-10 -4 -10 -3 0 -8 5 -11 10 -3 6 -1 10 4 10 6 0 11 -4 11 -10z"/>
<path d="M8746 3974 c-37 -37 -35 -86 3 -125 20 -20 39 -29 61 -29 44 0 90 47
89 92 0 27 -2 29 -9 13 -7 -19 -8 -19 -15 -1 -5 11 -3 21 6 27 11 8 10 13 -10
29 -25 22 -41 26 -41 10 0 -5 -9 -10 -20 -10 -11 0 -20 5 -20 10 0 17 -16 11
-44 -16z m4 -38 c0 -8 -4 -18 -10 -21 -5 -3 -10 3 -10 14 0 12 5 21 10 21 6 0
10 -6 10 -14z m80 -65 c16 -30 12 -41 -14 -41 -31 0 -40 14 -26 40 13 25 26
25 40 1z"/>
<path d="M930 4071 c0 -20 49 -39 70 -26 15 9 12 32 -6 39 -33 13 -64 7 -64
-13z"/>
<path d="M1653 3963 c-7 -2 -13 -9 -13 -14 0 -14 26 -10 40 6 10 12 10 15 -1
14 -8 0 -20 -3 -26 -6z"/>
<path d="M502 3889 c1 -13 8 -23 13 -21 15 3 12 35 -3 40 -9 3 -13 -3 -10 -19z"/>
<path d="M1682 3753 c-1 -13 -2 -24 -1 -25 0 -2 -4 -15 -10 -30 -7 -18 -7 -29
-1 -33 15 -9 22 17 17 66 -2 24 -4 34 -5 22z"/>
<path d="M230 3275 c0 -30 3 -55 7 -55 4 0 20 12 35 27 l28 27 0 -27 c0 -15 5
-27 10 -27 6 0 10 26 10 57 l0 57 -30 -29 -30 -29 0 27 c0 17 -5 27 -15 27
-12 0 -15 -13 -15 -55z"/>
<path d="M350 3275 c0 -42 3 -55 15 -55 8 0 15 9 15 19 0 14 7 19 25 17 17 -1
25 -7 25 -18 0 -10 7 -18 15 -18 12 0 15 13 15 57 l0 56 -25 -23 -25 -23 -23
21 c-13 12 -26 22 -30 22 -4 0 -7 -25 -7 -55z"/>
<path d="M490 3275 c0 -42 3 -55 15 -55 11 0 15 12 15 46 0 38 3 45 18 42 12
-2 18 -15 20 -46 5 -61 22 -51 22 13 l0 55 -45 0 -45 0 0 -55z"/>
<path d="M622 3318 c-16 -16 -16 -70 0 -86 17 -17 64 -15 82 4 20 20 20 58 0
78 -18 19 -65 21 -82 4z m68 -44 c0 -19 -5 -24 -25 -24 -20 0 -25 5 -25 24 0
13 6 26 13 29 22 7 37 -4 37 -29z"/>
<path d="M740 3275 c0 -42 3 -55 15 -55 8 0 15 6 15 14 0 7 14 16 30 20 23 4
30 11 30 29 0 32 -18 47 -57 47 l-33 0 0 -55z m58 18 c-4 -22 -22 -20 -26 1
-2 10 3 16 13 16 10 0 15 -7 13 -17z"/>
<path d="M840 3320 c0 -5 7 -10 15 -10 11 0 15 -12 15 -45 0 -33 4 -45 15 -45
11 0 15 12 15 45 0 33 4 45 15 45 8 0 15 5 15 10 0 6 -20 10 -45 10 -25 0 -45
-4 -45 -10z"/>
<path d="M940 3275 l0 -55 35 0 c38 0 47 14 14 23 -23 6 -17 27 7 27 23 0 16
18 -8 23 l-23 4 23 8 c33 11 27 25 -13 25 l-35 0 0 -55z"/>
<path d="M1040 3276 c0 -43 3 -56 15 -56 8 0 15 6 15 14 0 8 10 16 21 18 12 2
27 11 33 21 17 26 -4 51 -48 55 l-36 3 0 -55z m55 14 c0 -7 -6 -15 -12 -17 -8
-3 -13 4 -13 17 0 13 5 20 13 18 6 -3 12 -11 12 -18z"/>
<path d="M1200 3274 l0 -55 38 3 c36 3 37 4 38 43 1 50 -10 65 -47 65 -28 0
-29 -1 -29 -56z m45 26 c3 -5 -1 -10 -10 -10 -9 0 -13 5 -10 10 3 6 8 10 10
10 2 0 7 -4 10 -10z m-1 -51 c-3 -5 -10 -7 -15 -3 -5 3 -7 10 -3 15 3 5 10 7
15 3 5 -3 7 -10 3 -15z"/>
<path d="M1350 3275 c0 -42 3 -55 15 -55 8 0 15 7 15 15 0 8 8 15 19 15 30 0
46 26 33 55 -9 20 -19 25 -47 25 l-35 0 0 -55z m55 15 c0 -7 -6 -15 -12 -17
-8 -3 -13 4 -13 17 0 13 5 20 13 18 6 -3 12 -11 12 -18z"/>
<path d="M1463 3304 c-15 -24 -15 -29 -2 -53 11 -20 22 -26 49 -26 27 0 38 6
49 26 13 24 13 29 -2 53 -12 18 -26 26 -47 26 -21 0 -35 -8 -47 -26z m67 -9
c17 -20 5 -45 -20 -45 -11 0 -23 7 -26 15 -6 15 11 45 26 45 4 0 13 -7 20 -15z"/>
<path d="M1593 3304 c-15 -24 -15 -29 -2 -53 16 -29 61 -40 85 -20 24 20 16
30 -21 23 -27 -5 -36 -3 -41 11 -4 9 0 23 8 32 13 12 19 13 36 2 25 -16 40 -5
22 16 -20 25 -67 19 -87 -11z"/>
<path d="M1720 3273 l0 -57 30 29 30 29 0 -27 c0 -17 5 -27 15 -27 12 0 15 13
15 55 0 30 -3 55 -7 55 -4 0 -20 -12 -35 -27 l-28 -27 0 27 c0 15 -4 27 -10
27 -5 0 -10 -26 -10 -57z"/>
<path d="M1840 3275 c0 -30 3 -55 7 -55 4 0 20 12 35 27 l28 27 0 -27 c0 -17
5 -27 15 -27 12 0 15 13 15 55 0 30 -3 55 -7 55 -4 0 -20 -12 -35 -27 l-28
-27 0 27 c0 17 -5 27 -15 27 -12 0 -15 -13 -15 -55z"/>
<path d="M1970 3273 l0 -57 30 29 30 29 0 -27 c0 -17 5 -27 15 -27 12 0 15 13
15 55 0 59 -7 66 -35 35 -10 -11 -22 -20 -27 -20 -4 0 -8 9 -8 20 0 11 -4 20
-10 20 -5 0 -10 -26 -10 -57z"/>
<path d="M7690 3275 c0 -42 3 -55 15 -55 9 0 15 9 16 23 l0 22 16 -22 c8 -13
22 -23 29 -23 16 0 19 16 4 25 -6 4 -7 23 -4 46 7 41 -9 56 -21 19 -3 -11 -11
-20 -16 -20 -5 0 -9 9 -9 20 0 11 -7 20 -15 20 -12 0 -15 -13 -15 -55z"/>
<path d="M7800 3275 c0 -30 3 -55 7 -55 4 0 20 12 35 27 l28 27 0 -27 c0 -17
5 -27 15 -27 12 0 15 13 15 55 0 30 -3 55 -7 55 -4 0 -20 -12 -35 -27 l-28
-27 0 27 c0 17 -5 27 -15 27 -12 0 -15 -13 -15 -55z"/>
<path d="M7930 3276 c0 -31 5 -56 10 -56 6 0 10 6 10 14 0 9 12 16 28 18 24 3
27 7 27 38 0 33 -2 35 -37 38 l-38 3 0 -55z m56 23 c10 -17 -13 -36 -27 -22
-12 12 -4 33 11 33 5 0 12 -5 16 -11z"/>
<path d="M8040 3275 c0 -65 17 -74 22 -12 2 35 7 43 26 45 35 5 26 22 -13 22
l-35 0 0 -55z"/>
<path d="M8130 3273 l0 -57 30 29 30 29 0 -27 c0 -17 5 -27 15 -27 12 0 15 13
15 56 l0 55 -35 -27 -35 -26 0 26 c0 14 -4 26 -10 26 -5 0 -10 -26 -10 -57z"/>
<path d="M8257 3324 c-14 -15 -6 -25 15 -19 17 6 20 4 14 -10 -3 -10 -2 -23 4
-30 8 -10 8 -15 -1 -20 -6 -4 -15 -1 -20 6 -6 10 -11 11 -19 3 -15 -15 12 -36
42 -32 21 3 23 8 23 53 0 46 -2 50 -25 53 -14 2 -29 0 -33 -4z"/>
<path d="M8357 3312 c-10 -10 -17 -28 -17 -39 0 -44 72 -71 100 -38 18 21 5
30 -24 17 -38 -17 -64 21 -32 47 11 9 19 9 35 -1 25 -15 39 -4 21 17 -17 21
-63 19 -83 -3z"/>
<path d="M8470 3275 c0 -42 3 -55 15 -55 8 0 15 9 15 20 0 11 3 20 8 20 4 0
13 -9 20 -20 7 -11 19 -20 28 -20 15 0 15 3 -1 26 -12 19 -14 29 -6 37 16 16
14 47 -3 47 -7 0 -16 -9 -19 -20 -3 -11 -10 -20 -16 -20 -6 0 -11 9 -11 20 0
11 -7 20 -15 20 -12 0 -15 -13 -15 -55z"/>
<path d="M8605 3280 c-14 -27 -25 -51 -25 -53 0 -1 25 -3 55 -3 30 0 55 2 55
3 0 8 -51 103 -55 103 -3 0 -16 -22 -30 -50z m40 -10 c3 -5 1 -10 -4 -10 -6 0
-11 5 -11 10 0 6 2 10 4 10 3 0 8 -4 11 -10z"/>
<path d="M8712 3313 c-5 -10 -6 -27 -2 -38 4 -11 3 -28 -2 -37 -11 -23 14 -25
32 -3 7 8 16 15 21 15 5 0 9 -7 9 -15 0 -8 5 -15 10 -15 6 0 10 25 10 55 l0
55 -35 0 c-23 0 -37 -6 -43 -17z m53 -14 c10 -15 -1 -23 -20 -15 -9 3 -13 10
-10 16 8 13 22 13 30 -1z"/>
<path d="M8870 3275 c0 -30 5 -55 10 -55 6 0 10 9 10 20 0 11 4 20 10 20 5 0
14 -9 20 -20 6 -11 17 -20 25 -20 17 0 20 16 5 25 -6 4 -7 23 -4 46 5 27 3 39
-6 39 -6 0 -14 -9 -17 -20 -3 -11 -12 -20 -19 -20 -8 0 -14 9 -14 20 0 11 -4
20 -10 20 -5 0 -10 -25 -10 -55z"/>
<path d="M8983 3304 c-15 -24 -15 -29 -2 -53 11 -20 22 -26 49 -26 27 0 38 6
49 26 13 24 13 29 -2 53 -12 18 -26 26 -47 26 -21 0 -35 -8 -47 -26z m67 -9
c17 -20 5 -45 -20 -45 -11 0 -23 7 -26 15 -6 15 11 45 26 45 4 0 13 -7 20 -15z"/>
<path d="M9110 3275 c0 -42 3 -55 15 -55 8 0 15 8 15 18 0 12 8 17 25 17 17 0
25 -5 25 -17 0 -10 7 -18 15 -18 12 0 15 13 15 55 0 30 -3 55 -7 55 -4 0 -18
-10 -31 -22 l-24 -23 -18 23 c-10 12 -21 22 -24 22 -3 0 -6 -25 -6 -55z"/>
<path d="M9250 3275 c0 -42 3 -55 15 -55 11 0 15 12 15 45 0 33 4 45 15 45 11
0 15 -12 15 -45 0 -33 4 -45 15 -45 12 0 15 13 15 55 l0 55 -45 0 -45 0 0 -55z"/>
<path d="M9382 3285 c-12 -25 -22 -49 -22 -53 0 -4 24 -7 54 -8 l54 0 -26 53
c-14 29 -29 53 -32 53 -3 0 -16 -20 -28 -45z m38 -15 c0 -5 -5 -10 -11 -10 -5
0 -7 5 -4 10 3 6 8 10 11 10 2 0 4 -4 4 -10z"/>
<path d="M9480 3275 c0 -41 4 -55 14 -55 8 0 16 10 18 23 2 12 10 22 18 22 8
0 16 -10 18 -22 2 -13 10 -23 18 -23 10 0 14 14 14 55 0 42 -3 55 -15 55 -8 0
-15 -9 -15 -20 0 -13 -7 -20 -20 -20 -13 0 -20 7 -20 20 0 11 -7 20 -15 20
-12 0 -15 -13 -15 -55z"/>
<path d="M9610 3273 l0 -57 30 29 30 29 0 -27 c0 -17 5 -27 15 -27 12 0 15 13
15 55 0 30 -3 55 -7 55 -4 0 -20 -12 -35 -27 l-28 -27 0 27 c0 15 -4 27 -10
27 -5 0 -10 -26 -10 -57z"/>
<path d="M9730 3310 c-7 -13 -8 -26 -1 -37 6 -11 6 -24 0 -35 -12 -23 13 -25
31 -3 7 8 16 15 21 15 5 0 9 -7 9 -15 0 -8 5 -15 10 -15 6 0 10 25 10 55 l0
55 -35 0 c-24 0 -37 -6 -45 -20z m58 -18 c2 -7 -6 -12 -17 -12 -21 0 -27 11
-14 24 9 9 26 2 31 -12z"/>
<path d="M9007 1139 c-9 -6 -15 -14 -12 -19 9 -14 -14 -60 -30 -60 -8 0 -15
-9 -15 -21 0 -15 5 -19 19 -14 10 3 24 -1 31 -10 10 -12 10 -15 -4 -15 -10 0
-34 -12 -53 -27 -20 -16 -39 -28 -42 -28 -3 0 -5 -3 -4 -6 1 -4 -6 -14 -17
-24 -35 -32 -202 -19 -221 17 -6 11 -23 24 -39 29 -21 8 -27 15 -23 30 7 25
-29 61 -51 53 -9 -3 -16 -10 -16 -15 0 -5 -9 -9 -19 -9 -10 0 -21 -7 -25 -15
-3 -8 -12 -15 -21 -15 -8 0 -15 -8 -15 -19 0 -26 -18 -38 -70 -46 -25 -4 -48
-9 -52 -11 -11 -7 12 -74 32 -94 15 -15 17 -25 10 -51 -9 -32 0 -59 21 -59 5
0 24 -16 43 -35 20 -19 46 -35 58 -36 20 0 51 -5 75 -11 4 -1 20 5 36 12 23
11 31 11 52 0 30 -16 42 -54 25 -75 -12 -15 -10 -19 33 -67 16 -17 20 -18 30
-5 18 22 84 31 94 13 14 -25 123 -20 123 7 0 6 3 8 6 4 11 -10 61 21 82 50 30
43 50 105 35 110 -7 2 -9 11 -6 19 3 8 -7 30 -21 49 l-27 35 25 25 c22 22 23
25 6 25 -10 0 -21 -4 -25 -10 -3 -5 -13 -3 -24 6 -17 15 -16 17 10 45 31 34
36 35 41 12 5 -29 108 76 108 110 0 15 4 27 9 27 5 0 11 14 13 30 5 34 5 34
-23 18 -17 -10 -23 -10 -26 0 -3 6 -12 12 -21 12 -8 0 -30 16 -48 35 -34 38
-40 40 -67 24z m-407 -192 c0 -19 -10 -27 -25 -20 -17 6 -8 33 11 33 8 0 14
-6 14 -13z m-146 -42 c5 -19 13 -25 34 -25 27 -1 27 -1 6 -18 -15 -13 -19 -23
-13 -37 13 -34 10 -38 -16 -21 -23 15 -27 15 -50 0 -26 -17 -29 -13 -16 21 6
15 2 24 -18 37 l-26 18 32 0 c26 0 34 5 39 25 3 14 10 25 14 25 4 0 11 -11 14
-25z m206 -20 c0 -17 -28 -27 -33 -12 -7 20 4 36 19 30 8 -3 14 -11 14 -18z
m0 -91 c0 -8 -6 -14 -14 -14 -18 0 -29 27 -13 33 16 6 27 -1 27 -19z m-62 -51
c-4 -22 -22 -20 -26 1 -2 10 3 16 13 16 10 0 15 -7 13 -17z"/>
<path d="M8890 450 c-11 -7 -12 -12 -3 -21 8 -8 14 -6 22 10 12 22 5 27 -19
11z"/>
<path d="M8790 292 c0 -8 9 -12 22 -10 30 4 33 23 3 23 -14 0 -25 -6 -25 -13z"/>
<path d="M7540 213 l0 -56 23 21 c29 27 37 28 37 2 0 -11 7 -20 15 -20 12 0
15 13 15 57 l0 57 -30 -29 -30 -29 0 27 c0 17 -5 27 -15 27 -12 0 -15 -13 -15
-57z"/>
<path d="M7660 215 c0 -41 4 -55 14 -55 8 0 16 10 18 23 2 12 10 22 18 22 8 0
16 -10 18 -22 2 -13 10 -23 18 -23 10 0 14 14 14 55 0 42 -3 55 -15 55 -8 0
-15 -9 -15 -20 0 -13 -7 -20 -20 -20 -13 0 -20 7 -20 20 0 11 -7 20 -15 20
-12 0 -15 -13 -15 -55z"/>
<path d="M7792 258 c-29 -29 -6 -98 34 -98 57 0 81 40 54 91 -12 22 -68 27
-88 7z m68 -43 c0 -13 -6 -25 -12 -28 -22 -7 -38 4 -38 28 0 13 6 25 13 28 21
7 37 -4 37 -28z"/>
<path d="M7928 259 c-22 -13 -24 -62 -2 -83 20 -21 58 -20 80 1 19 20 5 29
-23 15 -26 -13 -43 -4 -43 23 0 26 26 40 46 24 22 -18 39 -6 20 14 -19 19 -52
22 -78 6z"/>
<path d="M8030 261 c0 -5 7 -11 15 -15 10 -3 15 -19 15 -46 0 -22 5 -40 10
-40 6 0 10 18 10 40 0 27 5 43 15 46 28 11 15 24 -25 24 -22 0 -40 -4 -40 -9z"/>
<path d="M8130 216 c0 -43 3 -56 15 -56 8 0 15 6 15 14 0 8 10 16 21 18 12 2
27 11 33 21 17 26 -4 51 -48 55 l-36 3 0 -55z m55 14 c0 -7 -6 -15 -12 -17 -8
-3 -13 4 -13 17 0 13 5 20 13 18 6 -3 12 -11 12 -18z"/>
<path d="M8245 220 c-14 -27 -25 -51 -25 -53 0 -1 25 -3 55 -3 30 0 54 3 53 6
-2 3 -12 27 -23 53 -11 26 -23 47 -27 47 -4 0 -19 -22 -33 -50z m40 -10 c3 -5
1 -10 -4 -10 -6 0 -11 5 -11 10 0 6 2 10 4 10 3 0 8 -4 11 -10z"/>
<path d="M8350 215 c0 -42 3 -55 15 -55 9 0 15 9 15 25 0 16 6 25 15 25 9 0
15 -9 15 -25 0 -16 6 -25 15 -25 12 0 15 13 15 55 0 42 -3 55 -15 55 -8 0 -15
-9 -15 -20 0 -11 -7 -20 -15 -20 -8 0 -15 9 -15 20 0 11 -7 20 -15 20 -12 0
-15 -13 -15 -55z"/>
<path d="M8470 215 c0 -42 3 -55 15 -55 9 0 15 9 15 25 0 16 6 25 15 25 9 0
15 -9 15 -25 0 -16 6 -25 15 -25 12 0 15 13 15 55 0 42 -3 55 -15 55 -8 0 -15
-9 -15 -20 0 -11 -7 -20 -15 -20 -8 0 -15 9 -15 20 0 11 -7 20 -15 20 -12 0
-15 -13 -15 -55z"/>
<path d="M8590 214 l0 -55 36 3 c44 4 65 29 48 56 -6 9 -21 18 -33 20 -11 2
-21 10 -21 18 0 8 -7 14 -15 14 -12 0 -15 -13 -15 -56z m58 -16 c-6 -18 -28
-21 -28 -4 0 9 7 16 16 16 9 0 14 -5 12 -12z"/>
<path d="M8700 215 c0 -42 3 -55 15 -55 12 0 15 13 15 55 0 42 -3 55 -15 55
-12 0 -15 -13 -15 -55z"/>
<path d="M8760 215 c0 -30 3 -55 7 -55 4 0 20 12 35 27 l28 27 0 -27 c0 -17 5
-27 15 -27 12 0 15 13 15 55 0 30 -3 55 -7 55 -4 0 -20 -12 -35 -27 l-28 -27
0 27 c0 17 -5 27 -15 27 -12 0 -15 -13 -15 -55z"/>
<path d="M8930 215 c0 -42 3 -55 15 -55 11 0 15 12 15 45 0 33 4 45 15 45 11
0 15 -12 15 -45 0 -33 4 -45 15 -45 12 0 15 13 15 55 l0 55 -45 0 -45 0 0 -55z"/>
<path d="M9053 244 c-15 -24 -15 -29 -2 -53 11 -20 22 -26 49 -26 27 0 38 6
49 26 13 24 13 29 -2 53 -12 18 -26 26 -47 26 -21 0 -35 -8 -47 -26z m67 -9
c17 -20 5 -45 -20 -45 -11 0 -23 7 -26 15 -6 15 11 45 26 45 4 0 13 -7 20 -15z"/>
<path d="M9183 244 c-15 -24 -15 -29 -2 -53 16 -29 61 -40 85 -20 24 20 16 30
-21 23 -27 -5 -36 -3 -41 11 -4 9 0 23 8 32 13 12 19 13 36 2 25 -16 40 -5 22
16 -20 25 -67 19 -87 -11z"/>
<path d="M9290 260 c0 -5 7 -10 15 -10 11 0 15 -12 15 -45 0 -33 4 -45 15 -45
11 0 15 12 15 45 0 33 4 45 15 45 8 0 15 5 15 10 0 6 -20 10 -45 10 -25 0 -45
-4 -45 -10z"/>
<path d="M9402 225 c-12 -25 -22 -49 -22 -53 0 -4 24 -7 54 -8 l54 0 -26 53
c-14 29 -29 53 -32 53 -3 0 -16 -20 -28 -45z m38 -15 c0 -5 -5 -10 -11 -10 -5
0 -7 5 -4 10 3 6 8 10 11 10 2 0 4 -4 4 -10z"/>
<path d="M9500 216 l0 -56 34 0 c45 0 58 18 48 66 -7 36 -11 39 -45 42 l-37 3
0 -55z m55 24 c3 -5 -1 -10 -9 -10 -9 0 -16 5 -16 10 0 6 4 10 9 10 6 0 13 -4
16 -10z m-3 -45 c0 -5 -5 -11 -11 -13 -6 -2 -11 4 -11 13 0 9 5 15 11 13 6 -2
11 -8 11 -13z"/>
<path d="M9610 216 l0 -54 73 -4 c39 -2 73 -3 74 -3 1 0 -1 26 -4 58 -7 65
-23 77 -23 17 0 -29 -4 -40 -15 -40 -11 0 -15 11 -15 40 0 29 -4 40 -15 40
-11 0 -15 -11 -15 -40 0 -29 -4 -40 -15 -40 -11 0 -15 11 -15 40 0 29 -4 40
-15 40 -11 0 -15 -13 -15 -54z"/>
<path d="M9780 215 c0 -30 3 -55 7 -55 4 0 20 12 35 27 l28 27 0 -27 c0 -17 5
-27 15 -27 12 0 15 13 15 55 0 30 -3 55 -7 55 -4 0 -20 -12 -35 -27 l-28 -27
0 27 c0 17 -5 27 -15 27 -12 0 -15 -13 -15 -55z"/>
<path d="M9910 215 c0 -42 3 -55 15 -55 9 0 15 9 16 23 l0 22 16 -22 c19 -28
49 -32 38 -5 -10 22 -10 42 -1 70 5 16 3 22 -8 22 -8 0 -18 -9 -21 -20 -3 -11
-11 -20 -16 -20 -5 0 -9 9 -9 20 0 11 -7 20 -15 20 -12 0 -15 -13 -15 -55z"/>
</g>
</svg>
