<?xml version="1.0" standalone="no"?>
<!DOCTYPE svg PUBLIC "-//W3C//DTD SVG 20010904//EN"
 "http://www.w3.org/TR/2001/REC-SVG-20010904/DTD/svg10.dtd">
<svg version="1.0" xmlns="http://www.w3.org/2000/svg"
 width="338.000000pt" height="710.000000pt" viewBox="0 0 338.000000 710.000000"
 preserveAspectRatio="xMidYMid meet">

<g transform="translate(0.000000,710.000000) scale(0.100000,-0.100000)"
fill="#000000" stroke="none">
<path d="M1116 6164 c-5 -12 -13 -14 -32 -10 -24 6 -26 5 -21 -15 7 -28 -9
-69 -27 -69 -8 0 -16 -4 -18 -9 -1 -4 -13 -11 -25 -15 -18 -6 -22 -4 -17 8 3
8 -2 18 -13 23 -13 7 -24 3 -40 -14 -12 -12 -18 -25 -12 -28 14 -9 11 -25 -5
-25 -8 0 -16 -5 -18 -12 -2 -6 -25 10 -50 36 -31 31 -53 45 -67 43 -28 -4 -45
-22 -36 -37 5 -8 11 -6 19 6 12 16 13 16 20 -1 4 -11 -1 -24 -14 -35 -11 -9
-20 -23 -20 -30 0 -8 -8 -10 -25 -6 -18 5 -27 1 -35 -14 -13 -24 -30 -26 -30
-5 0 9 16 25 35 36 35 21 38 39 7 39 -25 0 -82 -37 -82 -53 0 -10 -8 -13 -26
-9 -18 3 -27 13 -31 33 -8 40 -34 37 -72 -6 -17 -19 -39 -35 -49 -35 -22 0
-52 -30 -52 -53 0 -9 -4 -19 -10 -22 -13 -8 -13 -72 1 -81 7 -4 2 -11 -13 -18
-32 -16 -34 -40 -6 -92 26 -50 43 -56 52 -19 4 14 13 25 21 25 8 0 15 9 15 19
0 24 31 37 45 19 5 -7 23 -20 38 -28 26 -13 30 -13 38 3 11 18 69 24 69 7 0
-5 11 -12 25 -16 14 -3 25 -12 25 -20 0 -33 149 -58 168 -27 5 7 20 9 47 4 30
-5 51 -3 83 11 36 16 42 23 42 48 0 33 14 38 41 14 9 -8 30 -16 47 -16 22 -1
28 -5 26 -17 -3 -9 0 -23 5 -31 8 -12 13 -11 31 5 17 16 21 28 17 56 -4 32 -2
36 14 32 13 -4 19 0 19 11 0 9 -4 16 -10 16 -5 0 -10 6 -11 13 0 6 -14 23 -30
36 -23 18 -33 21 -42 12 -18 -18 -27 -13 -26 17 0 18 10 35 29 50 l29 23 33
-23 c18 -13 38 -30 45 -38 20 -25 24 -6 9 45 -13 42 -13 49 1 63 20 20 0 30
-23 12 -19 -16 -29 -6 -30 31 -1 16 -2 43 -3 59 -1 19 -6 30 -16 30 -17 0 -20
16 -5 25 6 3 10 13 10 21 0 20 -56 19 -64 -2z m36 -74 c13 0 18 -8 18 -25 0
-16 -6 -25 -15 -25 -9 0 -18 -7 -21 -15 -5 -11 -23 -15 -72 -15 l-66 0 22 20
c12 11 26 20 33 20 15 0 38 30 39 51 0 8 6 21 13 28 10 10 14 7 21 -13 6 -15
18 -26 28 -26z"/>
<path d="M2451 6152 c-14 -11 -23 -29 -23 -50 -1 -17 -5 -32 -10 -32 -4 0 -8
5 -8 10 0 6 -8 10 -18 10 -11 0 -34 8 -53 17 -48 24 -105 20 -129 -9 -22 -26
-25 -39 -9 -35 19 4 21 -21 2 -28 -10 -3 -33 -19 -51 -34 -34 -29 -34 -29 -10
-36 12 -5 28 -14 33 -22 16 -21 47 -22 69 -2 20 19 36 17 36 -6 0 -7 14 -19
30 -27 17 -7 30 -16 30 -20 0 -5 12 -8 28 -8 l27 0 -25 -20 c-14 -11 -36 -23
-50 -26 -14 -4 -31 -14 -38 -22 -10 -14 -17 -14 -44 -4 -27 10 -36 9 -62 -7
-27 -17 -34 -18 -56 -6 -34 19 -43 18 -74 -8 -49 -42 -11 -67 87 -58 9 1 20
-4 23 -13 5 -13 10 -13 41 0 33 14 36 14 53 -7 11 -12 30 -21 45 -20 14 1 37
1 53 1 15 0 46 6 70 12 37 11 42 16 42 41 0 22 7 31 33 42 19 8 39 21 47 29 7
9 22 16 34 16 12 0 28 6 34 12 10 10 15 10 22 -2 5 -8 6 -18 3 -23 -3 -4 12
-5 34 -1 21 4 39 10 41 13 27 66 37 76 74 73 29 -3 43 2 60 20 26 27 140 98
157 98 6 0 11 5 11 10 0 6 7 10 15 10 8 0 15 9 15 20 0 15 -8 22 -29 26 -16 4
-39 15 -50 25 -15 14 -42 20 -113 25 -51 3 -100 5 -108 4 -8 -1 -34 -2 -57 -1
-24 0 -43 -5 -43 -10 0 -15 -57 -2 -98 22 -41 24 -64 24 -91 1z m95 -79 c-6
-16 -5 -16 8 0 9 12 16 14 21 7 3 -5 10 -8 15 -5 5 3 11 1 15 -5 4 -6 10 -8
15 -5 5 3 12 0 16 -6 5 -8 2 -10 -7 -4 -8 4 0 -5 16 -19 23 -20 25 -25 10 -20
-19 5 -19 5 -2 -9 18 -15 18 -16 0 -26 -17 -10 -17 -10 2 -11 14 0 16 -3 7 -9
-7 -4 -12 -13 -10 -19 2 -6 -6 -18 -17 -27 -11 -9 -14 -13 -6 -9 9 5 12 3 7
-5 -4 -6 -11 -9 -16 -6 -5 3 -13 -3 -19 -12 -10 -17 -10 -17 -11 2 -1 19 -1
19 -11 1 -9 -15 -13 -16 -20 -5 -7 12 -9 12 -9 0 0 -11 -5 -9 -22 5 -14 13
-19 14 -14 4 4 -8 -2 -4 -14 10 -12 14 -18 18 -14 10 4 -8 4 -12 0 -8 -4 3 -8
10 -8 15 0 4 -5 14 -11 22 -10 12 -9 13 2 6 10 -6 12 -4 6 6 -12 18 -14 49 -3
49 4 0 8 5 8 11 0 5 -6 7 -12 3 -10 -6 -10 -5 -1 8 7 8 11 18 8 21 -3 4 -2 5
1 2 4 -2 15 6 26 18 11 12 16 15 12 7 -5 -11 -2 -10 12 3 10 9 20 17 22 17 2
0 1 -8 -2 -17z m-349 -295 c-3 -8 -6 -5 -6 6 -1 11 2 17 5 13 3 -3 4 -12 1
-19z"/>
<path d="M2514 6023 c-16 -17 -19 -37 -3 -28 6 4 5 -2 -2 -13 -11 -18 -10 -24
5 -41 19 -20 42 -30 32 -12 -3 4 1 17 9 27 13 18 14 18 20 -9 4 -15 11 -27 16
-27 13 0 39 43 39 65 0 17 -2 18 -11 5 -9 -12 -10 -11 -6 7 3 13 0 26 -6 30
-21 13 -78 10 -93 -4z"/>
<path d="M664 6099 c-9 -16 17 -40 40 -37 12 2 21 9 21 17 0 17 -52 34 -61 20z"/>
<path d="M332 5946 c1 -10 8 -17 13 -17 15 1 12 24 -3 29 -9 3 -13 -2 -10 -12z"/>
<path d="M1248 5830 c-12 -39 -10 -76 3 -63 6 6 9 28 7 49 -3 35 -4 36 -10 14z"/>
<path d="M1990 5505 c0 -30 5 -55 10 -55 6 0 10 9 10 20 0 11 4 20 10 20 5 0
14 -9 20 -20 6 -11 17 -20 26 -20 13 0 13 3 -1 29 -9 19 -11 32 -5 36 15 9 12
45 -4 45 -7 0 -16 -9 -19 -20 -3 -11 -10 -20 -16 -20 -6 0 -11 9 -11 20 0 11
-4 20 -10 20 -5 0 -10 -25 -10 -55z"/>
<path d="M2100 5504 l0 -55 35 27 35 26 0 -26 c0 -14 5 -26 10 -26 6 0 10 26
10 57 l0 57 -30 -29 -30 -29 0 27 c0 17 -5 27 -15 27 -12 0 -15 -13 -15 -56z"/>
<path d="M2220 5505 c0 -42 3 -55 15 -55 8 0 15 6 15 14 0 7 14 16 30 20 23 4
30 11 30 29 0 32 -18 47 -57 47 l-33 0 0 -55z m58 18 c-4 -22 -22 -20 -26 1
-2 10 3 16 13 16 10 0 15 -7 13 -17z"/>
<path d="M2330 5505 c0 -42 3 -55 15 -55 11 0 15 11 15 41 0 32 4 42 20 46 32
9 23 23 -15 23 l-35 0 0 -55z"/>
<path d="M2420 5505 c0 -30 3 -55 7 -55 4 0 20 12 35 27 l28 27 0 -27 c0 -17
5 -27 15 -27 12 0 15 13 15 55 0 30 -3 55 -7 55 -4 0 -20 -12 -35 -27 l-28
-27 0 27 c0 17 -5 27 -15 27 -12 0 -15 -13 -15 -55z"/>
<path d="M2550 5544 c0 -11 6 -14 20 -9 22 7 28 -10 8 -19 -10 -5 -10 -7 0
-12 13 -6 17 -34 4 -34 -4 0 -13 5 -20 12 -15 15 -24 6 -16 -16 5 -12 16 -16
38 -14 29 3 31 6 32 43 1 56 -4 65 -37 65 -20 0 -29 -5 -29 -16z"/>
<path d="M2658 5549 c-22 -13 -24 -62 -2 -83 20 -21 58 -20 80 1 19 20 5 29
-23 15 -26 -13 -43 -4 -43 23 0 26 26 40 46 24 22 -18 39 -6 20 14 -19 19 -52
22 -78 6z"/>
<path d="M2770 5505 c0 -42 3 -55 15 -55 8 0 15 9 15 20 0 11 4 20 9 20 5 0
13 -9 16 -20 3 -11 15 -20 26 -20 18 0 19 1 4 24 -13 19 -14 29 -6 45 15 27
14 41 -3 41 -7 0 -16 -9 -19 -20 -3 -11 -10 -20 -16 -20 -6 0 -11 9 -11 20 0
11 -7 20 -15 20 -12 0 -15 -13 -15 -55z"/>
<path d="M2901 5511 c-11 -27 -21 -51 -21 -53 0 -2 24 -4 53 -4 l54 0 -22 50
c-12 28 -27 52 -32 53 -6 2 -20 -19 -32 -46z m39 -11 c0 -5 -5 -10 -11 -10 -5
0 -7 5 -4 10 3 6 8 10 11 10 2 0 4 -4 4 -10z"/>
<path d="M3010 5545 c-10 -12 -10 -21 -2 -40 7 -15 8 -26 2 -30 -15 -9 -12
-25 5 -25 9 0 18 7 21 15 4 8 10 15 15 15 5 0 9 -7 9 -15 0 -8 7 -15 15 -15
12 0 15 13 15 55 l0 55 -34 0 c-18 0 -39 -7 -46 -15z m50 -20 c0 -8 -7 -15
-15 -15 -16 0 -20 12 -8 23 11 12 23 8 23 -8z"/>
<path d="M330 5473 l0 -57 30 29 30 29 0 -27 c0 -17 5 -27 15 -27 12 0 15 13
15 55 0 30 -3 55 -7 55 -4 0 -20 -12 -35 -27 l-28 -27 0 27 c0 15 -4 27 -10
27 -5 0 -10 -26 -10 -57z"/>
<path d="M450 5475 c0 -42 3 -55 15 -55 8 0 15 8 15 18 0 12 8 17 25 17 17 0
25 -5 25 -17 0 -10 7 -18 15 -18 12 0 15 13 15 55 0 57 -11 69 -32 35 -7 -11
-18 -20 -25 -20 -7 0 -18 9 -25 20 -21 33 -28 23 -28 -35z"/>
<path d="M590 5475 c0 -42 3 -55 15 -55 11 0 15 12 15 45 0 33 4 45 15 45 11
0 15 -12 15 -45 0 -33 4 -45 15 -45 12 0 15 13 15 55 l0 55 -45 0 -45 0 0 -55z"/>
<path d="M717 5512 c-21 -23 -21 -41 -1 -70 22 -32 73 -27 93 9 13 24 13 29
-2 53 -21 31 -66 35 -90 8z m63 -17 c17 -20 5 -45 -20 -45 -11 0 -23 7 -26 15
-6 15 11 45 26 45 4 0 13 -7 20 -15z"/>
<path d="M840 5476 c0 -43 3 -56 15 -56 8 0 15 6 15 14 0 8 10 16 21 18 12 2
27 11 33 21 17 26 -4 51 -48 55 l-36 3 0 -55z m55 14 c0 -7 -6 -15 -12 -17 -8
-3 -13 4 -13 17 0 13 5 20 13 18 6 -3 12 -11 12 -18z"/>
<path d="M940 5521 c0 -5 7 -11 15 -15 10 -3 15 -19 15 -46 0 -22 5 -40 10
-40 6 0 10 18 10 40 0 27 5 43 15 46 28 11 15 24 -25 24 -22 0 -40 -4 -40 -9z"/>
<path d="M1040 5475 l0 -55 35 0 c19 0 35 5 35 10 0 6 -9 10 -20 10 -11 0 -20
7 -20 15 0 8 9 15 20 15 11 0 20 5 20 10 0 6 -9 10 -20 10 -11 0 -20 5 -20 10
0 6 9 10 20 10 11 0 20 5 20 10 0 6 -16 10 -35 10 l-35 0 0 -55z"/>
<path d="M1140 5476 c0 -31 5 -56 10 -56 6 0 10 6 10 14 0 9 12 16 28 18 24 3
27 7 27 38 0 33 -2 35 -37 38 l-38 3 0 -55z m56 23 c10 -17 -13 -36 -27 -22
-12 12 -4 33 11 33 5 0 12 -5 16 -11z"/>
<path d="M1990 5345 c0 -30 5 -55 10 -55 6 0 10 9 10 20 0 11 4 20 10 20 5 0
14 -9 20 -20 6 -11 17 -20 26 -20 13 0 13 3 -1 29 -9 19 -11 32 -5 36 15 9 12
45 -4 45 -7 0 -16 -9 -19 -20 -3 -11 -10 -20 -16 -20 -6 0 -11 9 -11 20 0 11
-4 20 -10 20 -5 0 -10 -25 -10 -55z"/>
<path d="M2107 5382 c-34 -38 -8 -92 44 -92 33 0 49 18 49 55 0 17 -5 36 -12
43 -18 18 -63 14 -81 -6z m62 -16 c15 -18 3 -46 -20 -46 -25 0 -35 26 -19 45
15 19 24 19 39 1z"/>
<path d="M2230 5347 c0 -44 3 -57 15 -57 8 0 15 9 15 21 0 11 4 17 10 14 6 -4
17 -1 25 5 13 10 15 8 15 -14 0 -16 5 -26 15 -26 12 0 15 13 15 55 0 30 -3 55
-7 55 -4 0 -17 -10 -30 -22 l-23 -21 -25 23 -25 23 0 -56z"/>
<path d="M2370 5345 c0 -65 17 -74 22 -12 2 29 8 42 18 42 10 0 16 -13 18 -42
2 -29 8 -43 18 -43 10 0 14 14 14 55 l0 55 -45 0 -45 0 0 -55z"/>
<path d="M2510 5375 c-5 -14 -16 -38 -24 -53 l-14 -28 54 0 c30 1 54 4 54 8 0
15 -44 98 -52 98 -5 0 -13 -11 -18 -25z m30 -35 c0 -5 -4 -10 -10 -10 -5 0
-10 5 -10 10 0 6 5 10 10 10 6 0 10 -4 10 -10z"/>
<path d="M2600 5345 c0 -42 3 -55 15 -55 9 0 15 10 15 26 0 33 33 30 38 -4 7
-44 22 -21 22 33 0 54 -13 74 -23 35 -3 -11 -12 -20 -21 -20 -9 0 -16 8 -16
20 0 11 -7 20 -15 20 -12 0 -15 -13 -15 -55z"/>
<path d="M2720 5345 c0 -30 3 -55 7 -55 4 0 20 12 35 27 l28 27 0 -27 c0 -17
5 -27 15 -27 12 0 15 13 15 55 0 30 -3 55 -7 55 -4 0 -20 -12 -35 -27 l-28
-27 0 27 c0 17 -5 27 -15 27 -12 0 -15 -13 -15 -55z"/>
<path d="M2850 5385 c-10 -12 -10 -21 -2 -40 7 -15 8 -26 2 -30 -15 -9 -12
-25 5 -25 9 0 18 7 21 15 4 8 10 15 15 15 5 0 9 -7 9 -15 0 -8 7 -15 15 -15
12 0 15 13 15 55 l0 55 -34 0 c-18 0 -39 -7 -46 -15z m50 -20 c0 -8 -7 -15
-15 -15 -16 0 -20 12 -8 23 11 12 23 8 23 -8z"/>
<path d="M320 5314 l0 -55 43 3 c42 3 42 3 43 43 1 51 -10 65 -52 65 l-34 0 0
-56z m55 26 c3 -5 -1 -10 -10 -10 -9 0 -13 5 -10 10 3 6 8 10 10 10 2 0 7 -4
10 -10z m-1 -51 c-3 -5 -10 -7 -15 -3 -5 3 -7 10 -3 15 3 5 10 7 15 3 5 -3 7
-10 3 -15z"/>
<path d="M480 5315 c0 -42 3 -55 15 -55 8 0 15 7 15 15 0 8 9 15 20 15 27 0
44 34 30 60 -8 14 -21 20 -45 20 l-35 0 0 -55z m55 15 c0 -7 -6 -15 -12 -17
-8 -3 -13 4 -13 17 0 13 5 20 13 18 6 -3 12 -11 12 -18z"/>
<path d="M597 5352 c-21 -23 -21 -41 -1 -70 22 -32 73 -27 93 9 13 24 13 29
-2 53 -21 31 -66 35 -90 8z m63 -17 c17 -20 5 -45 -20 -45 -11 0 -23 7 -26 15
-6 15 11 45 26 45 4 0 13 -7 20 -15z"/>
<path d="M727 5352 c-21 -23 -21 -41 -1 -70 17 -24 62 -30 82 -10 21 21 13 29
-23 22 -27 -5 -36 -3 -41 11 -4 9 0 23 8 32 13 12 19 13 36 2 25 -16 40 -5 22
16 -17 21 -63 19 -83 -3z"/>
<path d="M850 5313 l0 -57 30 29 30 29 0 -27 c0 -17 5 -27 15 -27 12 0 15 13
15 55 0 30 -3 55 -7 55 -4 0 -20 -12 -35 -27 l-28 -27 0 27 c0 15 -4 27 -10
27 -5 0 -10 -26 -10 -57z"/>
<path d="M970 5315 c0 -30 3 -55 7 -55 4 0 20 12 35 27 l28 27 0 -27 c0 -17 5
-27 15 -27 12 0 15 13 15 55 0 30 -3 55 -7 55 -4 0 -20 -12 -35 -27 l-28 -27
0 27 c0 17 -5 27 -15 27 -12 0 -15 -13 -15 -55z"/>
<path d="M1100 5313 l0 -57 30 29 30 29 0 -27 c0 -17 5 -27 15 -27 12 0 15 13
15 55 0 30 -3 55 -7 55 -4 0 -20 -12 -35 -27 l-28 -27 0 27 c0 15 -4 27 -10
27 -5 0 -10 -26 -10 -57z"/>
<path d="M1904 2102 c-6 -4 -15 -22 -19 -40 -3 -18 -15 -37 -26 -42 -25 -14
-25 -34 1 -27 10 3 24 -1 31 -9 9 -11 8 -14 -3 -14 -8 0 -28 -11 -43 -24 -15
-13 -34 -22 -42 -19 -10 4 -13 0 -11 -13 9 -52 -184 -63 -221 -12 -7 11 -24
24 -38 29 -16 6 -23 15 -20 24 8 19 -30 65 -48 58 -8 -3 -15 -12 -15 -20 0 -9
-6 -12 -19 -8 -12 3 -21 0 -25 -10 -3 -8 -12 -15 -20 -15 -18 0 -25 -36 -13
-72 7 -23 15 -28 40 -28 l32 0 -24 -19 c-19 -15 -22 -24 -17 -46 7 -28 7 -28
-17 -12 -22 14 -26 14 -47 0 -22 -16 -23 -16 -16 11 5 21 2 31 -16 46 l-23 19
33 1 c17 0 32 4 32 9 0 5 3 17 6 26 6 13 2 15 -22 9 -16 -4 -35 -7 -44 -7 -8
0 -20 -4 -27 -9 -15 -12 1 -68 23 -85 13 -9 15 -21 10 -51 -5 -37 -4 -40 45
-80 29 -23 59 -43 68 -43 43 -4 59 -7 69 -13 6 -4 22 -1 34 7 29 17 38 16 66
-8 25 -22 28 -45 10 -63 -9 -9 -10 -15 -2 -20 6 -4 16 -17 23 -30 9 -17 16
-21 25 -13 20 16 106 26 106 12 0 -6 11 -11 25 -11 14 0 25 -4 25 -9 0 -5 14
-3 30 5 17 9 30 19 30 22 0 4 11 8 25 8 30 2 48 19 80 80 27 50 31 74 14 74
-5 0 -8 4 -5 9 3 5 -5 25 -18 44 -22 31 -23 37 -10 55 8 12 10 23 5 27 -5 3
-12 1 -16 -5 -4 -6 -12 -5 -21 5 -13 12 -12 17 8 40 24 28 43 33 34 9 -8 -22
10 -9 65 44 32 31 45 50 42 63 -3 11 -1 19 5 19 5 0 12 14 14 30 5 33 4 34
-22 20 -13 -7 -21 -6 -30 5 -7 8 -18 15 -24 15 -6 0 -23 14 -38 30 -27 31 -35
35 -54 22z m-391 -178 c3 -3 3 -12 0 -19 -6 -17 -30 -9 -30 10 0 15 18 20 30
9z m57 -59 c0 -17 -10 -24 -25 -18 -8 2 -12 10 -9 17 6 16 34 17 34 1z m0 -91
c0 -8 -6 -14 -14 -14 -18 0 -29 27 -13 33 16 6 27 -1 27 -19z m-57 -40 c3 -3
3 -12 0 -19 -6 -17 -30 -9 -30 10 0 15 18 20 30 9z"/>
<path d="M1780 1434 c0 -9 5 -14 12 -12 18 6 21 28 4 28 -9 0 -16 -7 -16 -16z"/>
<path d="M2263 1377 c4 -14 46 -16 50 -3 1 5 -11 10 -26 12 -18 2 -27 -1 -24
-9z"/>
<path d="M1020 1293 l0 -57 30 29 30 29 0 -27 c0 -17 5 -27 15 -27 12 0 15 13
15 55 0 30 -3 55 -7 55 -4 0 -20 -12 -35 -27 l-28 -27 0 27 c0 15 -4 27 -10
27 -5 0 -10 -26 -10 -57z"/>
<path d="M1140 1295 c0 -42 3 -55 15 -55 9 0 15 9 15 25 0 16 6 25 15 25 9 0
15 -9 15 -25 0 -16 6 -25 15 -25 12 0 15 13 15 55 0 42 -3 55 -15 55 -8 0 -15
-9 -15 -20 0 -11 -7 -20 -15 -20 -8 0 -15 9 -15 20 0 11 -7 20 -15 20 -12 0
-15 -13 -15 -55z"/>
<path d="M1272 1338 c-7 -7 -12 -26 -12 -43 0 -38 16 -55 51 -55 53 0 79 59
41 93 -22 20 -63 22 -80 5z m65 -52 c-8 -21 -43 -20 -51 1 -10 26 23 48 42 29
8 -8 12 -22 9 -30z"/>
<path d="M1400 1335 c-7 -8 -12 -26 -12 -40 0 -14 5 -32 12 -40 16 -19 64 -19
80 0 17 21 4 32 -20 17 -15 -9 -22 -9 -35 4 -19 19 -19 28 -1 43 11 9 19 9 35
-1 25 -15 39 -4 21 17 -16 19 -64 19 -80 0z"/>
<path d="M1510 1340 c0 -5 5 -10 10 -10 6 0 10 -20 10 -45 0 -33 4 -45 15 -45
11 0 15 12 15 45 0 33 4 45 15 45 8 0 15 5 15 10 0 6 -18 10 -40 10 -22 0 -40
-4 -40 -10z"/>
<path d="M1610 1295 c0 -53 11 -72 24 -40 3 8 14 15 25 15 28 0 45 34 31 60
-8 14 -21 20 -45 20 l-35 0 0 -55z m56 24 c10 -17 -13 -36 -27 -22 -12 12 -4
33 11 33 5 0 12 -5 16 -11z"/>
<path d="M1725 1308 c-9 -24 -19 -48 -21 -53 -3 -7 16 -11 50 -11 l54 0 -22
50 c-12 27 -27 51 -33 53 -6 2 -18 -15 -28 -39z m35 -18 c0 -5 -5 -10 -11 -10
-5 0 -7 5 -4 10 3 6 8 10 11 10 2 0 4 -4 4 -10z"/>
<path d="M1830 1295 c0 -54 15 -77 22 -32 2 12 10 22 18 22 8 0 16 -10 18 -22
2 -13 10 -23 18 -23 10 0 14 14 14 55 0 42 -3 55 -15 55 -8 0 -15 -9 -15 -20
0 -13 -7 -20 -20 -20 -13 0 -20 7 -20 20 0 11 -4 20 -10 20 -5 0 -10 -25 -10
-55z"/>
<path d="M1950 1295 c0 -42 3 -55 15 -55 9 0 15 9 15 25 0 16 6 25 15 25 9 0
15 -9 15 -25 0 -16 6 -25 15 -25 12 0 15 13 15 55 0 42 -3 55 -15 55 -8 0 -15
-9 -15 -20 0 -11 -7 -20 -15 -20 -8 0 -15 9 -15 20 0 11 -7 20 -15 20 -12 0
-15 -13 -15 -55z"/>
<path d="M2070 1295 l0 -55 34 0 c44 0 63 22 48 55 -7 15 -20 25 -32 25 -11 0
-20 7 -20 15 0 8 -7 15 -15 15 -12 0 -15 -13 -15 -55z m58 -17 c-6 -18 -28
-21 -28 -4 0 9 7 16 16 16 9 0 14 -5 12 -12z"/>
<path d="M2180 1295 c0 -42 3 -55 15 -55 12 0 15 13 15 55 0 42 -3 55 -15 55
-12 0 -15 -13 -15 -55z"/>
<path d="M2240 1293 l0 -57 30 29 30 29 0 -27 c0 -17 5 -27 15 -27 12 0 15 13
15 57 l0 57 -30 -29 -30 -29 0 27 c0 17 -5 27 -15 27 -12 0 -15 -13 -15 -57z"/>
<path d="M1020 1135 c0 -65 17 -74 22 -12 2 29 8 42 18 42 10 0 16 -13 18 -42
2 -29 8 -43 18 -43 10 0 14 14 14 55 l0 55 -45 0 -45 0 0 -55z"/>
<path d="M1146 1174 c-36 -35 -9 -94 43 -94 35 0 51 17 51 55 0 17 -5 36 -12
43 -17 17 -64 15 -82 -4z m68 -29 c8 -22 -23 -48 -40 -34 -17 14 -18 31 -3 46
14 14 35 7 43 -12z"/>
<path d="M1276 1174 c-9 -8 -16 -26 -16 -39 0 -49 60 -73 96 -38 20 20 4 29
-24 14 -22 -12 -42 3 -42 30 0 21 29 34 44 19 5 -5 16 -10 23 -10 11 0 11 5 3
20 -13 24 -62 27 -84 4z"/>
<path d="M1380 1181 c0 -5 7 -11 15 -15 10 -3 15 -19 15 -46 0 -29 4 -40 15
-40 11 0 15 12 15 45 0 25 5 45 10 45 6 0 10 5 10 10 0 6 -18 10 -40 10 -22 0
-40 -4 -40 -9z"/>
<path d="M1495 1160 c-39 -75 -39 -76 21 -76 30 0 53 3 52 6 -2 3 -11 26 -22
53 -10 26 -22 47 -27 47 -5 0 -15 -13 -24 -30z m30 -30 c3 -5 1 -10 -4 -10 -6
0 -11 5 -11 10 0 6 2 10 4 10 3 0 8 -4 11 -10z"/>
<path d="M1590 1136 l0 -56 35 0 c41 0 54 19 46 70 -6 32 -9 35 -43 38 l-38 3
0 -55z m50 24 c0 -5 -4 -10 -10 -10 -5 0 -10 5 -10 10 0 6 5 10 10 10 6 0 10
-4 10 -10z m2 -45 c0 -5 -5 -11 -11 -13 -6 -2 -11 4 -11 13 0 9 5 15 11 13 6
-2 11 -8 11 -13z"/>
<path d="M1700 1136 l0 -54 73 -4 c39 -2 73 -3 73 -3 1 0 -1 26 -3 58 -4 39
-10 57 -19 57 -10 0 -14 -13 -14 -40 0 -29 -4 -40 -15 -40 -11 0 -15 11 -15
40 0 22 -4 40 -10 40 -5 0 -10 -18 -10 -40 0 -29 -4 -40 -15 -40 -11 0 -15 11
-15 40 0 29 -4 40 -15 40 -11 0 -15 -13 -15 -54z"/>
<path d="M1870 1135 c0 -30 3 -55 7 -55 4 0 20 12 35 27 l28 27 0 -27 c0 -15
5 -27 10 -27 6 0 10 26 10 57 l0 57 -30 -29 -30 -29 0 27 c0 17 -5 27 -15 27
-12 0 -15 -13 -15 -55z"/>
<path d="M1990 1135 c0 -42 3 -55 15 -55 8 0 15 9 15 20 0 11 4 20 10 20 5 0
14 -9 20 -20 6 -11 17 -20 26 -20 13 0 13 3 -1 29 -9 19 -11 32 -5 36 15 9 12
45 -4 45 -7 0 -16 -9 -19 -20 -3 -11 -10 -20 -16 -20 -6 0 -11 9 -11 20 0 11
-7 20 -15 20 -12 0 -15 -13 -15 -55z"/>
</g>
</svg>
